<svg width="64" height="64" viewBox="0 0 64 64" fill="none" xmlns="http://www.w3.org/2000/svg">
  <defs>
    <linearGradient id="insta_grad" x1="10" y1="54" x2="54" y2="10" gradientUnits="userSpaceOnUse">
      <stop offset="0" stop-color="#f09433"/>
      <stop offset="0.25" stop-color="#e6683c"/>
      <stop offset="0.5" stop-color="#dc2743"/>
      <stop offset="0.75" stop-color="#cc2366"/>
      <stop offset="1" stop-color="#bc1888"/>
    </linearGradient>
    <linearGradient id="blue_grad" x1="0" y1="0" x2="1" y2="1">
      <stop offset="0%" stop-color="#4facfe"/>
      <stop offset="100%" stop-color="#00f2fe"/>
    </linearGradient>
    <linearGradient id="green_grad" x1="0" y1="0" x2="1" y2="1">
      <stop offset="0%" stop-color="#43e97b"/>
      <stop offset="100%" stop-color="#38f9d7"/>
    </linearGradient>
  </defs>
  
  <rect x="12" y="12" width="40" height="40" rx="10" fill="url(#insta_grad)"/>
  <rect x="12" y="12" width="40" height="40" rx="10" stroke="white" stroke-width="2"/>
  <circle cx="32" cy="32" r="8" stroke="white" stroke-width="2" fill="none"/>
  <circle cx="42" cy="22" r="2" fill="white"/>

  <g transform="translate(4, 38)">
    <circle cx="8" cy="8" r="4" fill="url(#blue_grad)"/>
    <path d="M4 16C4 13.79 5.79 12 8 12C10.21 12 12 13.79 12 16" stroke="url(#blue_grad)" stroke-width="2" stroke-linecap="round"/>
  </g>
  
  <g transform="translate(46, 38)">
    <circle cx="8" cy="8" r="4" fill="url(#green_grad)"/>
    <path d="M4 16C4 13.79 5.79 12 8 12C10.21 12 12 13.79 12 16" stroke="url(#green_grad)" stroke-width="2" stroke-linecap="round"/>
  </g>

  <g transform="translate(22, 46)">
    <circle cx="8" cy="6" r="3" fill="#FFC107"/>
    <path d="M5 12C5 10.34 6.34 9 8 9C9.66 9 11 10.34 11 12" stroke="#FFC107" stroke-width="2" stroke-linecap="round"/>
  </g>
  
  <circle cx="52" cy="12" r="7" fill="#4CAF50" stroke="white" stroke-width="2"/>
  <path d="M52 8V16M48 12H56" stroke="white" stroke-width="2" stroke-linecap="round"/>

</svg>